<svg xmlns="http://www.w3.org/2000/svg" viewBox="0 0 24 24"><defs><style>.cls-1{fill:none;}.cls-2{fill:#fff;}</style></defs><title>icon-call-dispatcher</title><g id="Слой_2" data-name="Слой 2"><g id="main"><rect class="cls-1" width="24" height="24"/><path class="cls-2" d="M18.3,16.07a.86.86,0,0,1,.89.89v3.16a.86.86,0,0,1-.89.89A14.74,14.74,0,0,1,7.49,16.51,14.74,14.74,0,0,1,3,5.7a.86.86,0,0,1,.89-.89H7a.86.86,0,0,1,.89.89,10.06,10.06,0,0,0,.51,3.2.86.86,0,0,1-.21.93l-2,2a13.5,13.5,0,0,0,5.94,5.94l2-2a.86.86,0,0,1,.93-.21A10.06,10.06,0,0,0,18.3,16.07Zm-1.81-4V9.32H12.91V5.7h3.58V3L21,7.51Z"/></g></g></svg>