<svg xmlns="http://www.w3.org/2000/svg" viewBox="0 0 24 24"><defs><style>.cls-1{fill:none;}.cls-2{fill:#a0bfa1;}</style></defs><title>Ресурс 22</title><g id="Слой_2" data-name="Слой 2"><g id="main"><g id="Новый_символ_19" data-name="Новый символ 19"><rect class="cls-1" width="24" height="24"/></g><path class="cls-2" d="M19.23,4.77a1.68,1.68,0,0,1,1.27.53A1.79,1.79,0,0,1,21,6.59V17.41a1.79,1.79,0,0,1-.51,1.29,1.68,1.68,0,0,1-1.27.53H4.77a1.68,1.68,0,0,1-1.27-.53A1.79,1.79,0,0,1,3,17.41V6.59A1.79,1.79,0,0,1,3.51,5.3a1.68,1.68,0,0,1,1.27-.53Zm0,3.63V6.59H4.77V8.41Zm0,9V12H4.77v5.41Z"/></g></g></svg>