<svg xmlns="http://www.w3.org/2000/svg" xmlns:xlink="http://www.w3.org/1999/xlink" viewBox="0 0 24 24"><defs><style>.cls-1{fill:#FD7F43;}.cls-2{fill:none;}</style><symbol id="Новый_символ_4" data-name="Новый символ 4" viewBox="0 0 24 24"><path class="cls-1" d="M21,12a8.67,8.67,0,0,1-2.64,6.36A8.67,8.67,0,0,1,12,21a8.67,8.67,0,0,1-6.36-2.64A8.66,8.66,0,0,1,3,12,8.67,8.67,0,0,1,5.64,5.64,8.67,8.67,0,0,1,12,3a8.67,8.67,0,0,1,6.36,2.64A8.67,8.67,0,0,1,21,12Zm-1.77,0a7,7,0,0,0-2.13-5.09A7,7,0,0,0,12,4.77,7,7,0,0,0,6.91,6.91,7,7,0,0,0,4.77,12a7,7,0,0,0,2.13,5.09A7,7,0,0,0,12,19.23a7,7,0,0,0,5.09-2.13A7,7,0,0,0,19.23,12Zm-6.76.17,4.06,2.45L15.8,15.8l-4.69-2.92V7.48h1.35Z"/><rect class="cls-2" width="24" height="24"/></symbol></defs><title>Ресурс 3</title><g id="Слой_2" data-name="Слой 2"><g id="main"><g id="Новый_символ" data-name="Новый символ"><use width="24" height="24" xlink:href="#Новый_символ_4"/></g></g></g></svg>