<svg xmlns="http://www.w3.org/2000/svg" xmlns:xlink="http://www.w3.org/1999/xlink" viewBox="0 0 24 24"><defs><style>.cls-1,.cls-2{fill:#ff7431;}.cls-1{opacity:0;}</style><symbol id="Новый_символ_13" data-name="Новый символ 13" viewBox="0 0 24 24"><rect class="cls-1" width="24" height="24"/><path class="cls-2" d="M11.5,2.74A9,9,0,0,1,16.21,4a9.41,9.41,0,0,1,3.34,3.36l2.19-2.19v6.35H15.43l2.65-2.7A7.31,7.31,0,0,0,4.18,12a7.41,7.41,0,0,0,2.15,5.19,7.12,7.12,0,0,0,5.17,2.13,7.4,7.4,0,0,0,4.27-1.37,7.17,7.17,0,0,0,2.63-3.47h2.06a9.42,9.42,0,0,1-3.27,4.87A9.26,9.26,0,0,1,5,18.54,9.24,9.24,0,0,1,11.5,2.74Zm.26,4.85v4.16l3.89,2.33-.78,1.23-4.57-2.74v-5Z"/></symbol></defs><title>Ресурс 17</title><g id="Слой_2" data-name="Слой 2"><g id="main"><use width="24" height="24" xlink:href="#Новый_символ_13"/></g></g></svg>