<svg xmlns="http://www.w3.org/2000/svg" viewBox="0 0 24 24"><defs><style>.cls-1,.cls-2{fill:#e57339;}.cls-1{opacity:0;}</style></defs><title>icon-tab-user-comments</title><g id="Слой_2" data-name="Слой 2"><g id="main"><rect class="cls-1" width="24" height="24"/><path class="cls-2" d="M2.69,9.8H6.23V20.35H2.69Zm19.38,2.64a1.86,1.86,0,0,1-.12.66l-2.68,6.18a1.72,1.72,0,0,1-1.61,1.07H9.74a1.64,1.64,0,0,1-1.24-.52A1.91,1.91,0,0,1,8,18.58V9.8A1.83,1.83,0,0,1,8.5,8.56l5.77-5.81.95.95a1.23,1.23,0,0,1,.37.91v.29l-.87,4h5.57a1.68,1.68,0,0,1,1.24.49,1.83,1.83,0,0,1,.54,1.24Z"/></g></g></svg>