<svg xmlns="http://www.w3.org/2000/svg" xmlns:xlink="http://www.w3.org/1999/xlink" viewBox="0 0 24 24"><defs><style>.cls-1,.cls-2{fill:#a8bea1;}.cls-1{opacity:0;}</style><symbol id="Новый_символ_7" data-name="Новый символ 7" viewBox="0 0 24 24"><rect class="cls-1" width="24" height="24"/><path class="cls-2" d="M15,9A4.19,4.19,0,0,0,9,9a4,4,0,0,0-1.19,3A4.07,4.07,0,0,0,12,16.21,4.06,4.06,0,0,0,16.16,12,4.07,4.07,0,0,0,15,9Zm-1.6,4.37a2,2,0,0,1-2.74,0,2,2,0,0,1,0-2.77,1.93,1.93,0,0,1,2.74,0,2,2,0,0,1,0,2.77Z"/></symbol></defs><title>Ресурс 4</title><g id="Слой_2" data-name="Слой 2"><g id="main"><use id="Новый_символ_7-3" data-name="Новый символ 7" width="24" height="24" xlink:href="#Новый_символ_7"/></g></g></svg>