<svg xmlns="http://www.w3.org/2000/svg" xmlns:xlink="http://www.w3.org/1999/xlink" viewBox="0 0 24 24"><defs><style>.cls-1{fill:#a8bea1;}.cls-2{fill:none;}</style><symbol id="Новый_символ_24" data-name="Новый символ 24" viewBox="0 0 24 24"><path class="cls-1" d="M9.69,19.68a.74.74,0,0,1-.76-.76V16.62H5.83a1.44,1.44,0,0,1-1.08-.45,1.53,1.53,0,0,1-.43-1.1V5.83A1.48,1.48,0,0,1,5.83,4.32H18.17a1.48,1.48,0,0,1,1.52,1.52v9.23a1.53,1.53,0,0,1-.43,1.1,1.44,1.44,0,0,1-1.08.45H13.48l-2.85,2.85a.82.82,0,0,1-.54.22Zm3.07-9.23V7.38H11.24v3.07Zm0,3.1V12H11.24v1.55Z"/><rect class="cls-2" width="24" height="24"/></symbol></defs><title>Ресурс 11</title><g id="Слой_2" data-name="Слой 2"><g id="main"><g id="Новый_символ" data-name="Новый символ"><use width="24" height="24" xlink:href="#Новый_символ_24"/></g></g></g></svg>