<svg xmlns="http://www.w3.org/2000/svg" xmlns:xlink="http://www.w3.org/1999/xlink" viewBox="0 0 24 24"><defs><style>.cls-1{fill:none;}.cls-2{fill:#a8bea1;}</style><symbol id="Новый_символ_25" data-name="Новый символ 25" viewBox="0 0 24 24"><rect class="cls-1" width="24" height="24"/><path class="cls-2" d="M18.81,6.32l2,5.89v7.87a.94.94,0,0,1-1,1h-1a.94.94,0,0,1-1-1v-1H6.11v1a.94.94,0,0,1-1,1h-1a.94.94,0,0,1-1-1V12.21l2-5.89a1.72,1.72,0,0,1,.55-.69,1.42,1.42,0,0,1,.87-.28H17.39a1.42,1.42,0,0,1,.87.28A1.73,1.73,0,0,1,18.81,6.32ZM5.14,11.25H18.86L17.39,6.83H6.61Zm1.47,4.88a1.38,1.38,0,0,0,1-.41,1.45,1.45,0,0,0-1-2.49,1.47,1.47,0,0,0-1,2.49A1.43,1.43,0,0,0,6.61,16.13Zm10.77,0a1.43,1.43,0,0,0,1.06-.41,1.45,1.45,0,1,0-2.07,0A1.38,1.38,0,0,0,17.39,16.13ZM14.62,4.6h-5L10,2.95h4.22Z"/></symbol></defs><title>icon-tab-taxi</title><g id="Слой_2" data-name="Слой 2"><g id="main"><use width="24" height="24" xlink:href="#Новый_символ_25"/></g></g></svg>