<svg xmlns="http://www.w3.org/2000/svg" xmlns:xlink="http://www.w3.org/1999/xlink" viewBox="0 0 24 24">
    <defs>
        <style>.cls-1,.cls-2{fill:#a8bea1;}.cls-1{opacity:0;}</style>
        <symbol id="Новый_символ_6" data-name="Новый символ 6" viewBox="0 0 24 24">
            <rect class="cls-1" width="24" height="24"/>
            <path class="cls-2"
                  d="M17.28,3.52A7.32,7.32,0,0,0,12,1.38,7.33,7.33,0,0,0,4.57,8.81a18.25,18.25,0,0,0,3.72,9A51.55,51.55,0,0,0,12,22.61a51.55,51.55,0,0,0,3.71-4.81,18.25,18.25,0,0,0,3.72-9A7.37,7.37,0,0,0,17.28,3.52ZM11.17,6.31a2.08,2.08,0,0,1,1.47-.59,2,2,0,0,1,1.45.59,2,2,0,0,1,.57,1.46,2,2,0,0,1-2,2,2,2,0,0,1-1.46-.58,2,2,0,0,1-.58-1.46A2,2,0,0,1,11.17,6.31ZM16.73,14H9V11.52A6,6,0,0,1,7,9.41a5.84,5.84,0,0,1-.78-2.93V5.72a.9.9,0,0,1,.9-.9.89.89,0,0,1,.9.9H8v.76A4.27,4.27,0,0,0,9.34,9.54a4.54,4.54,0,0,0,3.15,1.32h.15a7.64,7.64,0,0,1,2.57.51c.93.34,1.45.85,1.52,1.54Z"/>
        </symbol>
    </defs>
    <title>Ресурс 6</title>
    <g id="Слой_2" data-name="Слой 2">
        <g id="main">
            <use id="Новый_символ_6-3" data-name="Новый символ 6" width="24" height="24" xlink:href="#Новый_символ_6"/>
        </g>
    </g>
</svg>