<svg xmlns="http://www.w3.org/2000/svg" xmlns:xlink="http://www.w3.org/1999/xlink" viewBox="0 0 24 24"><defs><style>.cls-1,.cls-2{fill:#a8bea1;}.cls-1{opacity:0;}</style><symbol id="Новый_символ_8" data-name="Новый символ 8" viewBox="0 0 24 24"><rect class="cls-1" width="24" height="24"/><path class="cls-2" d="M18.88,5.59a9.09,9.09,0,0,1,0,12.8,9,9,0,0,1-12,.76,9.21,9.21,0,0,1-3.19-4.76h2a7,7,0,0,0,2.57,3.4,7.23,7.23,0,0,0,4.18,1.34,7,7,0,0,0,5-2.08A7.25,7.25,0,0,0,19.64,12,7.14,7.14,0,0,0,6.06,8.89l2.59,2.64H2.48V5.32L4.63,7.47A9.19,9.19,0,0,1,7.89,4.18,8.79,8.79,0,0,1,12.49,3,9,9,0,0,1,18.88,5.59Zm-6.39,2.1v4.07L16.29,14l-.76,1.21-4.47-2.68V7.69Z"/></symbol></defs><title>Ресурс 18</title><g id="Слой_2" data-name="Слой 2"><g id="main"><use width="24" height="24" xlink:href="#Новый_символ_8"/></g></g></svg>