<svg xmlns="http://www.w3.org/2000/svg" viewBox="0 0 24 24"><defs><style>.cls-1{fill:none;}.cls-2{fill:#FD7F43;}</style></defs><title>Ресурс 20</title><g id="Слой_2" data-name="Слой 2"><g id="main"><rect class="cls-1" width="24" height="24"/><path class="cls-2" d="M18.72,12.89l1.9,1.48q.3.21.08.59l-1.82,3.13a.41.41,0,0,1-.55.17l-2.24-.89a7.65,7.65,0,0,1-1.52.89l-.34,2.37a.41.41,0,0,1-.42.38H10.18a.41.41,0,0,1-.42-.38l-.34-2.37a6.92,6.92,0,0,1-1.52-.89l-2.24.89a.41.41,0,0,1-.55-.17L3.3,15q-.21-.38.08-.59l1.9-1.48a6.83,6.83,0,0,1,0-.89,6.83,6.83,0,0,1,0-.89L3.38,9.63Q3.08,9.42,3.3,9L5.11,5.92a.41.41,0,0,1,.55-.17l2.24.89a7.65,7.65,0,0,1,1.52-.89l.34-2.37A.41.41,0,0,1,10.18,3h3.63a.41.41,0,0,1,.42.38l.34,2.37a6.92,6.92,0,0,1,1.52.89l2.24-.89a.41.41,0,0,1,.55.17L20.7,9q.21.38-.08.59l-1.9,1.48a6.83,6.83,0,0,1,0,.89A6.83,6.83,0,0,1,18.72,12.89Zm-9,1.35a3.16,3.16,0,0,0,4.48,0,3.16,3.16,0,0,0,0-4.48,3.16,3.16,0,0,0-4.48,0,3.16,3.16,0,0,0,0,4.48Z"/></g></g></svg>